<?xml version="1.0" standalone="no"?>
<!DOCTYPE svg PUBLIC "-//W3C//DTD SVG 20010904//EN"
 "http://www.w3.org/TR/2001/REC-SVG-20010904/DTD/svg10.dtd">
<svg version="1.0" xmlns="http://www.w3.org/2000/svg"
 width="749.000000pt" height="749.000000pt" viewBox="0 0 749.000000 749.000000"
 preserveAspectRatio="xMidYMid meet">
<metadata>
Created by potrace 1.14, written by Peter Selinger 2001-2017
</metadata>
<g transform="translate(0.000000,749.000000) scale(0.100000,-0.100000)"
fill="#000000" stroke="none">
<path d="M3498 6905 c-2 -2 -32 -5 -68 -8 -36 -4 -76 -9 -90 -12 -14 -3 -38
-8 -55 -11 -129 -23 -335 -101 -440 -167 -151 -95 -213 -143 -315 -246 -115
-117 -195 -228 -285 -396 -79 -147 -116 -217 -145 -270 -15 -27 -53 -99 -85
-160 -32 -60 -66 -123 -75 -140 -10 -16 -39 -70 -65 -120 -55 -105 -66 -124
-212 -390 -61 -110 -124 -225 -141 -255 -16 -30 -74 -136 -129 -235 -55 -99
-115 -209 -135 -245 -20 -36 -47 -85 -61 -110 -29 -52 -226 -409 -270 -490
-17 -30 -40 -73 -52 -95 -13 -22 -46 -83 -75 -135 -84 -152 -112 -203 -130
-235 -9 -16 -38 -70 -65 -120 -26 -49 -51 -94 -55 -100 -5 -5 -22 -37 -40 -70
-73 -135 -103 -191 -110 -200 -4 -5 -29 -50 -55 -100 -27 -49 -58 -106 -69
-126 -58 -103 -136 -250 -155 -294 -28 -61 -77 -218 -85 -270 -4 -20 -8 -40
-10 -44 -8 -12 -18 -148 -18 -231 1 -192 51 -363 160 -550 153 -261 380 -416
682 -465 80 -13 384 -14 435 -2 11 2 42 8 68 11 177 26 519 121 697 193 8 4
17 7 20 8 6 2 12 4 130 52 85 35 189 80 310 136 84 38 414 203 505 252 39 20
97 51 130 68 33 17 71 38 85 47 14 9 57 34 95 55 39 21 102 55 140 77 332 186
630 280 884 280 247 -1 423 -73 818 -334 423 -280 615 -374 924 -454 254 -65
566 -90 751 -59 301 51 494 211 589 490 7 22 14 42 14 45 1 3 4 19 8 35 27
112 32 178 32 400 0 214 -8 346 -26 422 -6 27 -13 58 -15 69 -16 83 -105 322
-155 413 -16 30 -29 58 -29 62 0 12 -115 202 -169 279 -244 353 -569 619 -940
770 l-114 47 -64 119 c-127 236 -161 300 -203 379 -38 71 -207 387 -295 550
-18 33 -54 101 -80 150 -26 50 -60 113 -75 140 -15 28 -47 86 -70 130 -24 44
-55 103 -70 130 -15 28 -53 100 -85 160 -32 61 -61 115 -65 120 -4 6 -38 69
-75 140 -126 240 -191 333 -329 471 -243 243 -551 394 -880 430 -51 6 -244 12
-248 9z m172 -2517 c65 -12 163 -57 205 -96 54 -48 100 -115 160 -227 31 -60
73 -137 91 -171 l34 -61 -103 -43 c-159 -67 -465 -219 -644 -319 -185 -103
-458 -241 -479 -241 -8 0 -14 -4 -14 -10 0 -5 -6 -10 -13 -10 -7 0 -51 -16
-97 -36 -47 -20 -103 -42 -125 -49 -22 -7 -48 -16 -58 -20 -16 -7 -15 -2 6 36
13 24 43 80 67 124 23 44 76 143 117 220 42 77 93 174 116 215 22 41 52 98 67
125 72 132 100 185 131 245 68 134 124 204 204 257 37 24 110 54 150 60 17 3
31 6 33 8 6 6 102 2 152 -7z"/>
</g>
</svg>
